<?xml version="1.0" encoding="UTF-8" standalone="no"?>
<svg
   xmlns:dc="http://purl.org/dc/elements/1.1/"
   xmlns:cc="http://creativecommons.org/ns#"
   xmlns:rdf="http://www.w3.org/1999/02/22-rdf-syntax-ns#"
   xmlns:svg="http://www.w3.org/2000/svg"
   xmlns="http://www.w3.org/2000/svg"
   xmlns:sodipodi="http://sodipodi.sourceforge.net/DTD/sodipodi-0.dtd"
   xmlns:inkscape="http://www.inkscape.org/namespaces/inkscape"
   width="6.0924144mm"
   height="7.4083328mm"
   viewBox="0 0 6.0924143 7.4083328"
   version="1.1"
   id="svg8"
   inkscape:version="1.0.2-2 (e86c870879, 2021-01-15)"
   sodipodi:docname="my-logo.svg">
  <defs
     id="defs2">
    <rect
       x="41.533684"
       y="84.938255"
       width="97.28611"
       height="95.789398"
       id="rect879" />
    <rect
       x="94.292686"
       y="114.49827"
       width="48.643055"
       height="33.301785"
       id="rect846" />
    <rect
       x="58.737499"
       y="93.927086"
       width="55.827084"
       height="41.010418"
       id="rect840" />
  </defs>
  <sodipodi:namedview
     id="base"
     pagecolor="#ffffff"
     bordercolor="#666666"
     borderopacity="1.0"
     inkscape:pageopacity="0.0"
     inkscape:pageshadow="2"
     inkscape:zoom="11.313709"
     inkscape:cx="-22.969883"
     inkscape:cy="23.043989"
     inkscape:document-units="px"
     inkscape:current-layer="g842"
     inkscape:document-rotation="0"
     showgrid="false"
     inkscape:pagecheckerboard="false"
     inkscape:window-width="1920"
     inkscape:window-height="1027"
     inkscape:window-x="-8"
     inkscape:window-y="-8"
     inkscape:window-maximized="1" />
  <metadata
     id="metadata5">
    <rdf:RDF>
      <cc:Work
         rdf:about="">
        <dc:format>image/svg+xml</dc:format>
        <dc:type
           rdf:resource="http://purl.org/dc/dcmitype/StillImage" />
        <dc:title />
      </cc:Work>
    </rdf:RDF>
  </metadata>
  <g
     inkscape:label="Layer 1"
     inkscape:groupmode="layer"
     id="layer1"
     transform="translate(-29.650745,-118.89097)">
    <text
       xml:space="preserve"
       id="text844"
       style="font-style:normal;font-weight:normal;font-size:10.5833px;line-height:1.25;font-family:sans-serif;white-space:pre;shape-inside:url(#rect846);fill:#000000;fill-opacity:1;stroke:none;" />
    <g
       aria-label="B"
       transform="matrix(14.905784,0,0,14.905784,-581.75916,-1233.8263)"
       id="text877"
       style="font-style:normal;font-weight:normal;font-size:10.5833px;line-height:1.25;font-family:sans-serif;white-space:pre;shape-inside:url(#rect879);fill:#000000;fill-opacity:1;stroke:none">
      <g
         aria-label="B"
         id="text888"
         style="font-style:normal;font-weight:normal;font-size:8.72146px;line-height:1.25;font-family:sans-serif;fill:#000000;fill-opacity:1;stroke:none;stroke-width:0.218037">
        <g
           id="g842"
           transform="matrix(0.07032871,0,0,0.07032871,38.133535,84.368753)">
          <path
             d="m 46.686958,95.156991 c 0,0.315131 -0.05962,0.593354 -0.178858,0.834671 -0.119239,0.241317 -0.279643,0.440048 -0.481213,0.596194 -0.238477,0.187375 -0.465585,0.418435 -0.752326,0.497928 -0.283902,0.07949 -0.659361,0.1 -1.068174,0.08818 l -2.301753,-0.06656 v -6.340945 h 1.87801 c 0.46276,0 0.80912,0.01703 1.03908,0.0511 0.229961,0.03407 0.449985,0.105042 0.660072,0.212927 0.232799,0.122077 0.401721,0.279643 0.506764,0.472696 0.105044,0.190214 0.157566,0.418755 0.157566,0.685623 0,0.300935 -0.07665,0.557866 -0.229961,0.770793 -0.153307,0.210087 -0.357716,0.379009 -0.613227,0.506764 v 0.03407 c 0.428691,0.08801 0.766534,0.276804 1.013529,0.566383 0.246994,0.286741 0.370491,0.650136 0.370491,1.090183 z"
             style="font-style:normal;font-weight:normal;font-size:8.72146px;line-height:1.25;font-family:sans-serif;white-space:pre;shape-inside:url(#rect879);fill:#1c1c24;fill-opacity:1;stroke:none;stroke-width:0.218037"
             id="path890-5"
             sodipodi:nodetypes="ssccsccssccsccccss" />
          <g
             aria-label="b"
             id="text895-8"
             style="font-style:normal;font-weight:normal;font-size:8.4667px;line-height:1.25;font-family:sans-serif;white-space:pre;shape-inside:url(#rect879);fill:#e6e6e6;fill-opacity:1;stroke:none;stroke-width:0.0461513"
             transform="matrix(0.8428615,-0.23090177,0.23048625,0.84438103,-14.597426,26.688717)">
            <path
               d="m 43.080989,87.668418 q -0.02932,0.475208 -0.05575,0.980459 -0.02642,0.505249 -0.04769,1.022809 -0.01721,0.517847 -0.03402,1.04171 -0.01272,0.524148 -0.01864,1.036859 -0.0022,0.509997 0.0058,1.002835 0.0077,0.489836 0.02762,0.941771 l 0.04414,0.0063 q 0.258616,-0.559954 0.57841,-0.978217 0.319793,-0.418264 0.665469,-0.691445 0.345678,-0.273177 0.697596,-0.399716 0.35591,-0.126251 0.682765,-0.102454 0.275033,0.02001 0.493836,0.113504 0.218513,0.09049 0.386443,0.230995 0.167647,0.137507 0.287521,0.313297 0.119586,0.172789 0.201072,0.360704 0.08118,0.184912 0.123077,0.37293 0.04588,0.188309 0.06155,0.350552 0.04322,0.44767 -0.03863,0.829549 -0.07818,0.379169 -0.254405,0.685562 -0.176522,0.303389 -0.435453,0.532164 -0.258928,0.228775 -0.573235,0.375953 -0.314304,0.147177 -0.672606,0.207618 -0.358011,0.06344 -0.728713,0.03646 -0.247134,-0.018 -0.502315,-0.07833 -0.251196,-0.06006 -0.498772,-0.164581 -0.243588,-0.10424 -0.467904,-0.254825 -0.224603,-0.153575 -0.410002,-0.352044 -0.113988,0.254242 -0.241235,0.412047 -0.127262,0.157808 -0.240954,0.250969 l -0.211046,-0.05414 q 0.174847,-0.443732 0.216401,-1.079148 0.04125,-0.638423 0.0184,-1.448577 -0.01373,-0.347072 -0.02877,-0.789704 -0.01102,-0.442342 -0.02674,-0.932758 -0.01568,-0.490414 -0.02943,-1.001572 -0.01404,-0.514162 -0.02514,-0.998278 -0.01111,-0.484116 -0.02131,-0.917445 -0.01017,-0.433329 -0.01475,-0.767802 -0.0029,-0.07182 0.0479,-0.11883 0.05059,-0.05004 0.131394,-0.07397 0.08052,-0.02696 0.182699,-0.03444 0.10617,-0.0071 0.209812,3.01e-4 0.243149,0.01769 0.51551,0.132993 z m 3.154798,5.823435 q -0.01972,-0.204305 -0.08446,-0.423821 -0.06075,-0.219222 -0.169247,-0.400154 -0.104818,-0.183649 -0.263027,-0.30555 -0.154512,-0.124615 -0.361796,-0.139702 -0.243147,-0.01769 -0.473317,0.05804 -0.226471,0.07301 -0.434603,0.213007 -0.204438,0.137274 -0.387997,0.326782 -0.183851,0.186504 -0.341754,0.395783 -0.153917,0.209568 -0.275369,0.427465 -0.117758,0.215183 -0.201665,0.411944 -0.07994,0.197053 -0.119489,0.36124 -0.03985,0.161188 -0.03027,0.260335 0.07779,0.190631 0.216127,0.352852 0.142067,0.159509 0.32789,0.280435 0.189529,0.118216 0.410282,0.190961 0.224744,0.07303 0.467892,0.09073 0.398604,0.02901 0.734868,-0.09569 0.339962,-0.127407 0.575191,-0.396691 0.235228,-0.269285 0.346663,-0.672881 0.115139,-0.406307 0.06407,-0.935099 z"
               style="font-style:normal;font-variant:normal;font-weight:normal;font-stretch:normal;font-family:Gabriola;-inkscape-font-specification:Gabriola;fill:#fd3a69;fill-opacity:1;stroke-width:0.0769935"
               id="path897-4" />
          </g>
        </g>
      </g>
    </g>
  </g>
</svg>
